<?xml version="1.0" encoding="UTF-8"?>
<svg width="1024px" height="1024px" viewBox="0 0 1024 1024" version="1.1" xmlns="http://www.w3.org/2000/svg" xmlns:xlink="http://www.w3.org/1999/xlink">
  <polygon points="809.165547 588 752.78766 618.382048 811.700803 648.604397 511.547376 805.406738 212.472841 648.604397 271.192609 618.382048 214.532613 588 120 637.633456 120 659.669761 511.517825 865 904 659.669761 904 637.633456"></polygon>
  <polygon points="809.165547 451 752.78766 481.382048 811.700803 511.604397 511.547376 668.406738 212.472841 511.604397 271.192609 481.382048 214.532613 451 120 500.633456 120 522.669761 511.517825 728 904 522.669761 904 500.633456"></polygon>
  <path d="M511.535964,158 L904,363.619309 L904,385.456457 L511.651929,591 L120,385.456457 L120.036235,363.619309 L511.535964,158 Z M212.389193,374.5 L511.567323,531.473548 L811.794176,374.5 L511.565514,217.603244 L212.389193,374.5 Z"></path>
</svg>
