<?xml version="1.0" encoding="UTF-8"?>
<svg width="20px" height="20px" viewBox="0 0 20 20" version="1.1" xmlns="http://www.w3.org/2000/svg" xmlns:xlink="http://www.w3.org/1999/xlink">
    <!-- Generator: Sketch 45.2 (43514) - http://www.bohemiancoding.com/sketch -->
    <title>Search Icon White</title>
    <desc>Search Icon White SVG for Amsterdam PatternLab</desc>
    <defs></defs>
    <g id="Symbols" stroke="none" stroke-width="1" fill="none" fill-rule="evenodd">
        <g id="Icoon-vergrootglas/zoeken" fill="#000000">
            <g id="Fill-1">
                <path d="M3.79944,12.53788 C2.63224,11.37108 1.98944,9.81948 1.98944,8.16868 C1.98944,6.51828 2.63224,4.96628 3.79944,3.79908 C4.96664,2.63188 6.51824,1.98908 8.16904,1.98908 C9.81944,1.98908 11.37104,2.63188 12.53784,3.79948 C13.70504,4.96628 14.34824,6.51828 14.34824,8.16868 C14.34824,9.81908 13.70504,11.37108 12.53784,12.53828 C11.37104,13.70548 9.81944,14.34788 8.16904,14.34788 C6.51824,14.34788 4.96664,13.70548 3.79944,12.53788 L3.79944,12.53788 Z M19.86504,18.45828 L14.60104,13.19428 C15.72304,11.76388 16.33744,10.01508 16.33744,8.16868 C16.33744,5.98668 15.48744,3.93548 13.94464,2.39268 C12.40224,0.84988 10.35104,-0.00012 8.16904,-0.00012 C5.98664,-0.00012 3.93544,0.84988 2.39264,2.39268 C0.84984,3.93548 -0.000160000001,5.98668 -0.000160000001,8.16868 C-0.000160000001,10.35068 0.84984,12.40228 2.39264,13.94468 C3.93544,15.48748 5.98664,16.33748 8.16904,16.33748 C10.01544,16.33748 11.76464,15.72268 13.19464,14.60108 L18.45864,19.86468 L19.86504,18.45828 Z"></path>
            </g>
        </g>
    </g>
</svg>
